<?xml version="1.0" encoding="UTF-8" standalone="no"?>
<!-- Created with Inkscape (http://www.inkscape.org/) -->

<svg
   xmlns:dc="http://purl.org/dc/elements/1.1/"
   xmlns:cc="http://creativecommons.org/ns#"
   xmlns:rdf="http://www.w3.org/1999/02/22-rdf-syntax-ns#"
   xmlns:svg="http://www.w3.org/2000/svg"
   xmlns="http://www.w3.org/2000/svg"
   xmlns:sodipodi="http://sodipodi.sourceforge.net/DTD/sodipodi-0.dtd"
   xmlns:inkscape="http://www.inkscape.org/namespaces/inkscape"
   width="60.4529mm"
   height="59.591923mm"
   viewBox="0 0 60.4529 59.591923"
   version="1.1"
   id="svg8"
   inkscape:version="0.92.4 (5da689c313, 2019-01-14)"
   sodipodi:docname="ausschoepfung.svg">
  <defs
     id="defs2">
    <marker
       inkscape:isstock="true"
       style="overflow:visible"
       id="marker2872"
       refX="0"
       refY="0"
       orient="auto"
       inkscape:stockid="Arrow1Sstart">
      <path
         transform="matrix(0.2,0,0,0.2,1.2,0)"
         style="fill:#000000;fill-opacity:1;fill-rule:evenodd;stroke:#000000;stroke-width:1.00000003pt;stroke-opacity:1"
         d="M 0,0 5,-5 -12.5,0 5,5 Z"
         id="path2870"
         inkscape:connector-curvature="0" />
    </marker>
    <marker
       inkscape:stockid="Arrow1Sstart"
       orient="auto"
       refY="0"
       refX="0"
       id="marker2824"
       style="overflow:visible"
       inkscape:isstock="true"
       inkscape:collect="always">
      <path
         id="path2822"
         d="M 0,0 5,-5 -12.5,0 5,5 Z"
         style="fill:#000000;fill-opacity:1;fill-rule:evenodd;stroke:#000000;stroke-width:1.00000003pt;stroke-opacity:1"
         transform="matrix(0.2,0,0,0.2,1.2,0)"
         inkscape:connector-curvature="0" />
    </marker>
    <marker
       inkscape:stockid="Arrow1Mend"
       orient="auto"
       refY="0"
       refX="0"
       id="Arrow1Mend"
       style="overflow:visible"
       inkscape:isstock="true">
      <path
         id="path828"
         d="M 0,0 5,-5 -12.5,0 5,5 Z"
         style="fill:#000000;fill-opacity:1;fill-rule:evenodd;stroke:#000000;stroke-width:1.00000003pt;stroke-opacity:1"
         transform="matrix(-0.4,0,0,-0.4,-4,0)"
         inkscape:connector-curvature="0" />
    </marker>
    <marker
       inkscape:stockid="Arrow1Sstart"
       orient="auto"
       refY="0"
       refX="0"
       id="Arrow1Sstart"
       style="overflow:visible"
       inkscape:isstock="true">
      <path
         id="path831"
         d="M 0,0 5,-5 -12.5,0 5,5 Z"
         style="fill:#000000;fill-opacity:1;fill-rule:evenodd;stroke:#000000;stroke-width:1.00000003pt;stroke-opacity:1"
         transform="matrix(0.2,0,0,0.2,1.2,0)"
         inkscape:connector-curvature="0" />
    </marker>
    <marker
       inkscape:stockid="Arrow1Mend"
       orient="auto"
       refY="0"
       refX="0"
       id="Arrow1Mend-3"
       style="overflow:visible"
       inkscape:isstock="true">
      <path
         inkscape:connector-curvature="0"
         id="path828-4"
         d="M 0,0 5,-5 -12.5,0 5,5 Z"
         style="fill:#000000;fill-opacity:1;fill-rule:evenodd;stroke:#000000;stroke-width:1.00000003pt;stroke-opacity:1"
         transform="matrix(-0.4,0,0,-0.4,-4,0)" />
    </marker>
  </defs>
  <sodipodi:namedview
     id="base"
     pagecolor="#ffffff"
     bordercolor="#666666"
     borderopacity="1.0"
     inkscape:pageopacity="0.0"
     inkscape:pageshadow="2"
     inkscape:zoom="1.4142136"
     inkscape:cx="411.8967"
     inkscape:cy="188.2842"
     inkscape:document-units="mm"
     inkscape:current-layer="layer1"
     showgrid="false"
     inkscape:window-width="3840"
     inkscape:window-height="2035"
     inkscape:window-x="-13"
     inkscape:window-y="-13"
     inkscape:window-maximized="1" />
  <metadata
     id="metadata5">
    <rdf:RDF>
      <cc:Work
         rdf:about="">
        <dc:format>image/svg+xml</dc:format>
        <dc:type
           rdf:resource="http://purl.org/dc/dcmitype/StillImage" />
        <dc:title></dc:title>
      </cc:Work>
    </rdf:RDF>
  </metadata>
  <g
     inkscape:label="Ebene 1"
     inkscape:groupmode="layer"
     id="layer1"
     transform="translate(-125.45845,-99.584628)">
    <path
       style="opacity:1;fill:none;fill-opacity:0.20697674;stroke:#1a1a1a;stroke-width:0.26499999;stroke-linecap:round;stroke-linejoin:bevel;stroke-miterlimit:4;stroke-dasharray:none;stroke-dashoffset:0;stroke-opacity:1"
       id="path2689"
       sodipodi:type="arc"
       sodipodi:cx="155.14996"
       sodipodi:cy="128.88747"
       sodipodi:rx="6.9901156"
       sodipodi:ry="6.9901156"
       sodipodi:start="3.6831866"
       sodipodi:end="2.6001121"
       d="m 149.16022,125.28404 a 6.9901156,6.9901156 0 0 1 7.85979,-3.1319 6.9901156,6.9901156 0 0 1 5.12007,6.73572 6.9901156,6.9901156 0 0 1 -5.12084,6.73515 6.9901156,6.9901156 0 0 1 -7.85943,-3.1328"
       sodipodi:open="true" />
    <path
       sodipodi:open="true"
       d="m 130.33241,125.26596 a 25.0804,25.0804 0 0 1 26.6401,-21.39259 25.0804,25.0804 0 0 1 23.25785,25.0282 25.0804,25.0804 0 0 1 -23.28597,25.00202 25.0804,25.0804 0 0 1 -26.61604,-21.42252"
       sodipodi:end="2.9978145"
       sodipodi:start="3.2864952"
       sodipodi:ry="25.0804"
       sodipodi:rx="25.0804"
       sodipodi:cy="128.88747"
       sodipodi:cx="155.14996"
       sodipodi:type="arc"
       id="path2706"
       style="opacity:1;fill:none;fill-opacity:0.20697674;stroke:#1a1a1a;stroke-width:0.26499999;stroke-linecap:round;stroke-linejoin:bevel;stroke-miterlimit:4;stroke-dasharray:none;stroke-dashoffset:0;stroke-opacity:1" />
    <path
       style="fill:#afe9af;stroke:#000000;stroke-width:0.26458332px;stroke-linecap:butt;stroke-linejoin:miter;stroke-opacity:1"
       d="m 149.17398,132.48163 -18.84563,-5.6e-4"
       id="path2708"
       inkscape:connector-curvature="0"
       sodipodi:nodetypes="cc" />
    <path
       style="fill:#afe9af;stroke:#000000;stroke-width:0.26458332px;stroke-linecap:butt;stroke-linejoin:miter;stroke-opacity:1"
       d="m 149.16022,125.28404 -18.82781,-0.0181"
       id="path2710"
       inkscape:connector-curvature="0"
       sodipodi:nodetypes="cc" />
    <path
       style="opacity:1;fill:#afe9af;fill-opacity:0.20697674;stroke:#1a1a1a;stroke-width:0.17705508;stroke-linecap:round;stroke-linejoin:bevel;stroke-miterlimit:4;stroke-dasharray:none;stroke-dashoffset:0;stroke-opacity:1"
       d="m 581.10805,581.20634 c -38.69824,-2.31457 -71.85444,-27.7015 -84.10588,-64.39793 -1.43316,-4.2927 -2.48946,-8.46746 -3.35303,-13.25194 l -0.40681,-2.2539 h 35.05263 35.05264 l 1.01515,1.45841 c 1.45472,2.08991 4.7312,5.28579 6.88848,6.71902 8.40881,5.58655 18.70738,6.15711 27.65529,1.53215 7.22767,-3.7358 12.22435,-10.42489 13.98751,-18.72519 0.5702,-2.68429 0.57675,-7.38855 0.0142,-10.20492 -0.76192,-3.81447 -2.39436,-7.63477 -4.57482,-10.70612 -1.36251,-1.91921 -4.35753,-4.89363 -6.33067,-6.28714 -2.94486,-2.07977 -6.68898,-3.6645 -10.48594,-4.43827 -10.10301,-2.05886 -20.94937,2.23473 -26.97995,10.68017 l -1.09469,1.53305 -34.98084,-0.0165 c -19.23945,-0.009 -35.02113,-0.0568 -35.07038,-0.10607 -0.12064,-0.12063 0.40817,-3.16043 1.05888,-6.08681 2.86174,-12.86998 8.58469,-25.3146 16.5435,-35.97406 3.68253,-4.93211 9.4655,-11.12333 14.02317,-15.0131 12.19459,-10.40758 27.02818,-17.6808 42.3553,-20.76766 6.42591,-1.29417 10.46228,-1.74959 16.86489,-1.90283 22.89954,-0.54809 45.09178,7.23829 62.75456,22.0181 2.65969,2.22557 7.67654,7.14016 10.12665,9.92025 12.41438,14.08631 20.42683,31.90219 22.73785,50.55813 0.59922,4.83727 0.78072,8.54204 0.66684,13.61181 -0.0579,2.57652 -0.1879,5.51985 -0.28893,6.54074 -1.94381,19.6428 -9.22836,37.05417 -21.85502,52.23751 -2.41724,2.90669 -8.32621,8.82388 -11.19964,11.21521 -15.11161,12.57625 -32.8925,20.0219 -52.13898,21.83293 -3.58308,0.33715 -10.58261,0.4753 -13.93196,0.27497 z"
       id="path2738"
       inkscape:connector-curvature="0"
       transform="scale(0.26458333)" />
    <path
       sodipodi:open="true"
       d="m 150.46222,120.76805 a 9.3754959,9.3754959 0 0 1 11.86979,2.09296 9.3754959,9.3754959 0 0 1 0,12.05291 9.3754959,9.3754959 0 0 1 -11.86979,2.09296"
       sodipodi:end="2.0943951"
       sodipodi:start="4.1887902"
       sodipodi:ry="9.3754959"
       sodipodi:rx="9.3754959"
       sodipodi:cy="128.88747"
       sodipodi:cx="155.14996"
       sodipodi:type="arc"
       id="path2750"
       style="opacity:1;fill:none;fill-opacity:0.20697674;stroke:#1a1a1a;stroke-width:0.26499999;stroke-linecap:round;stroke-linejoin:bevel;stroke-miterlimit:4;stroke-dasharray:none;stroke-dashoffset:0;stroke-opacity:1" />
    <path
       style="opacity:1;fill:none;fill-opacity:0.20697674;stroke:#1a1a1a;stroke-width:0.26499999;stroke-linecap:round;stroke-linejoin:bevel;stroke-miterlimit:4;stroke-dasharray:none;stroke-dashoffset:0;stroke-opacity:1"
       id="path2752"
       sodipodi:type="arc"
       sodipodi:cx="155.14996"
       sodipodi:cy="128.88747"
       sodipodi:rx="21.970051"
       sodipodi:ry="21.970051"
       sodipodi:start="4.0365122"
       sodipodi:end="2.2180236"
       d="m 141.4059,111.74734 a 21.970051,21.970051 0 0 1 29.69233,2.02933 21.970051,21.970051 0 0 1 0.42631,29.75854 21.970051,21.970051 0 0 1 -29.62201,2.87906"
       sodipodi:open="true" />
    <path
       sodipodi:nodetypes="cc"
       inkscape:connector-curvature="0"
       id="path2754"
       d="m 150.46222,137.00688 -8.55969,9.40739"
       style="fill:#afe9af;stroke:#000000;stroke-width:0.26458332px;stroke-linecap:butt;stroke-linejoin:miter;stroke-opacity:1" />
    <path
       sodipodi:nodetypes="cc"
       inkscape:connector-curvature="0"
       id="path2756"
       d="m 150.46222,120.76805 -9.05632,-9.02071"
       style="fill:#afe9af;stroke:#000000;stroke-width:0.26458332px;stroke-linecap:butt;stroke-linejoin:miter;stroke-opacity:1" />
    <path
       style="opacity:1;fill:#afe9af;fill-opacity:0.20697674;stroke:#1a1a1a;stroke-width:0.17705508;stroke-linecap:round;stroke-linejoin:bevel;stroke-miterlimit:4;stroke-dasharray:none;stroke-dashoffset:0;stroke-opacity:1"
       d="m 581.16278,569.43276 c -14.8734,-1.07881 -28.46539,-5.68367 -40.48186,-13.71496 -1.36118,-0.90975 -2.6955,-1.83517 -2.96514,-2.05649 l -0.49027,-0.40239 15.7781,-17.33853 15.7781,-17.33853 2.12467,1.02609 c 3.60992,1.74336 7.55273,2.8605 11.84375,3.35575 2.23613,0.25808 7.21106,0.10376 9.46119,-0.29349 11.95039,-2.10979 21.56986,-9.36636 26.70623,-20.1462 5.89412,-12.37013 4.16954,-27.111 -4.43619,-37.9186 -2.49559,-3.13411 -6.08723,-6.25662 -9.67575,-8.41194 -10.24837,-6.15532 -23.51143,-6.70471 -34.18938,-1.41621 l -1.88449,0.93334 -16.67706,-16.68137 c -9.51176,-9.51421 -16.59981,-16.73663 -16.49725,-16.80999 0.0989,-0.0708 0.93417,-0.69194 1.85616,-1.38044 5.45356,-4.07245 12.20774,-7.81599 18.73529,-10.38414 15.95704,-6.27801 33.1279,-7.44671 49.80378,-3.38978 20.88969,5.08208 39.09937,18.26616 50.41897,36.5041 6.46144,10.41057 10.38694,21.6407 11.95683,34.20629 0.44209,3.53854 0.54099,12.8045 0.17734,16.6149 -1.03241,10.81765 -3.69957,20.20913 -8.40428,29.59285 -2.85759,5.69955 -5.48975,9.80359 -9.47939,14.78021 -13.8082,17.22411 -33.70834,28.04055 -55.93593,30.40319 -3.10488,0.33002 -10.60806,0.4778 -13.52342,0.26634 z"
       id="path2760"
       inkscape:connector-curvature="0"
       transform="scale(0.26458333)" />
    <path
       sodipodi:open="true"
       d="m 155.13681,117.57093 a 11.316541,11.316541 0 0 1 9.80918,5.65068 11.316541,11.316541 0 0 1 0.007,11.32033 11.316541,11.316541 0 0 1 -9.80261,5.66207"
       sodipodi:end="1.5707963"
       sodipodi:start="4.7112269"
       sodipodi:ry="11.316541"
       sodipodi:rx="11.316541"
       sodipodi:cy="128.88747"
       sodipodi:cx="155.14996"
       sodipodi:type="arc"
       id="path2762"
       style="opacity:1;fill:none;fill-opacity:0.20697674;stroke:#1a1a1a;stroke-width:0.26499999;stroke-linecap:round;stroke-linejoin:bevel;stroke-miterlimit:4;stroke-dasharray:0.26499999, 0.52999997;stroke-dashoffset:0;stroke-opacity:1" />
    <path
       style="opacity:1;fill:none;fill-opacity:0.20697674;stroke:#1a1a1a;stroke-width:0.26499999;stroke-linecap:round;stroke-linejoin:bevel;stroke-miterlimit:4;stroke-dasharray:0.26499999, 0.52999997;stroke-dashoffset:0;stroke-opacity:1"
       id="path2764"
       sodipodi:type="arc"
       sodipodi:cx="155.14996"
       sodipodi:cy="128.88747"
       sodipodi:rx="20.133095"
       sodipodi:ry="20.133095"
       sodipodi:start="4.7119735"
       sodipodi:end="1.5707963"
       d="m 155.1416,108.75437 a 20.133095,20.133095 0 0 1 17.44135,10.06172 20.133095,20.133095 0 0 1 0.004,20.13551 20.133095,20.133095 0 0 1 -17.43717,10.06896"
       sodipodi:open="true" />
    <path
       style="fill:none;stroke:#000000;stroke-width:0.26458332;stroke-linecap:butt;stroke-linejoin:miter;stroke-miterlimit:4;stroke-dasharray:0.26458332, 0.52916663;stroke-dashoffset:0;stroke-opacity:1"
       d="m 155.13681,117.57093 0.005,-8.81656"
       id="path2766"
       inkscape:connector-curvature="0"
       sodipodi:nodetypes="cc" />
    <path
       style="fill:none;stroke:#000000;stroke-width:0.26499999;stroke-linecap:butt;stroke-linejoin:miter;stroke-miterlimit:4;stroke-dasharray:0.26499999, 0.52999997;stroke-dashoffset:0;stroke-opacity:1"
       d="m 155.14996,140.20401 v 8.81655"
       id="path2768"
       inkscape:connector-curvature="0" />
    <path
       style="opacity:1;fill:#afe9af;fill-opacity:0.20697674;stroke:none;stroke-width:0.12519684;stroke-linecap:round;stroke-linejoin:bevel;stroke-miterlimit:4;stroke-dasharray:0.12519684, 0.25039369;stroke-dashoffset:0;stroke-opacity:1"
       d="m 586.94811,546.57737 v -16.0693 l 1.34375,-0.0834 c 5.4964,-0.34133 10.23861,-1.4072 14.83184,-3.33363 13.62439,-5.71416 23.43204,-18.00917 25.938,-32.51628 0.48491,-2.80714 0.57394,-3.97995 0.5715,-7.5282 -0.002,-2.66355 -0.0565,-3.90329 -0.22889,-5.1875 -1.11425,-8.30179 -4.1805,-15.5444 -9.28754,-21.9375 -1.42253,-1.78076 -4.73066,-5.09065 -6.48116,-6.48462 -6.70082,-5.33601 -14.34608,-8.48423 -22.8125,-9.39389 -0.92812,-0.0997 -2.17969,-0.18192 -2.78125,-0.18265 l -1.09375,-0.001 v -16.14434 -16.14434 l 2.21602,0.0865 c 18.79062,0.73342 36.52389,8.32273 49.83332,21.32718 4.99657,4.88207 8.69246,9.53522 12.18444,15.34028 11.36647,18.89557 13.84821,42.09383 6.74343,63.03472 -2.02504,5.96867 -5.09902,12.23551 -8.58024,17.49229 -7.92668,11.96963 -19.23572,21.52478 -32.33447,27.3198 -8.78046,3.88455 -18.44168,6.1258 -27.59375,6.40127 l -2.46875,0.0743 z"
       id="path2772"
       inkscape:connector-curvature="0"
       transform="scale(0.26458333)" />
    <path
       sodipodi:open="true"
       d="m 164.57116,119.46627 a 13.323579,13.323579 0 0 1 3.90238,9.4212 13.323579,13.323579 0 0 1 -3.90238,9.42119"
       sodipodi:end="0.78539816"
       sodipodi:start="5.4977871"
       sodipodi:ry="13.323579"
       sodipodi:rx="13.323579"
       sodipodi:cy="128.88747"
       sodipodi:cx="155.14996"
       sodipodi:type="arc"
       id="path2774"
       style="opacity:1;fill:none;fill-opacity:0.20697674;stroke:#1a1a1a;stroke-width:0.26499999;stroke-linecap:round;stroke-linejoin:bevel;stroke-miterlimit:4;stroke-dasharray:none;stroke-dashoffset:0;stroke-opacity:1" />
    <path
       style="opacity:1;fill:none;fill-opacity:0.20697674;stroke:#1a1a1a;stroke-width:0.26499999;stroke-linecap:round;stroke-linejoin:bevel;stroke-miterlimit:4;stroke-dasharray:none;stroke-dashoffset:0;stroke-opacity:1"
       id="path2776"
       sodipodi:type="arc"
       sodipodi:cx="155.14996"
       sodipodi:cy="128.88747"
       sodipodi:rx="18.962511"
       sodipodi:ry="18.962511"
       sodipodi:start="5.4977871"
       sodipodi:end="0.78539816"
       d="m 168.55848,115.47895 a 18.962511,18.962511 0 0 1 5.55399,13.40852 18.962511,18.962511 0 0 1 -5.55399,13.40852"
       sodipodi:open="true" />
    <path
       style="fill:none;stroke:#000000;stroke-width:0.26458332px;stroke-linecap:butt;stroke-linejoin:miter;stroke-opacity:1"
       d="m 164.57115,119.46627 3.98733,-3.98733"
       id="path2778"
       inkscape:connector-curvature="0" />
    <path
       style="fill:none;stroke:#000000;stroke-width:0.26458332px;stroke-linecap:butt;stroke-linejoin:miter;stroke-opacity:1"
       d="m 164.57115,138.30866 3.98733,3.98732"
       id="path2780"
       inkscape:connector-curvature="0" />
    <path
       style="opacity:1;fill:#afe9af;fill-opacity:0.20697674;stroke:none;stroke-width:0.06259842;stroke-linecap:round;stroke-linejoin:bevel;stroke-miterlimit:4;stroke-dasharray:0.06259842, 0.12519684;stroke-dashoffset:0;stroke-opacity:1"
       d="m 629.89155,529.89481 -7.15203,-7.15225 0.58964,-0.61486 c 3.26186,-3.40147 6.35358,-7.8033 8.52247,-12.13384 3.00634,-6.00267 4.7217,-12.20922 5.29697,-19.16556 0.12489,-1.5103 0.10637,-6.22456 -0.0305,-7.77047 -0.77277,-8.72629 -3.22453,-15.97163 -8.14703,-23.78009 -0.3553,-0.54343 -2.45796,-3.80687 -6.25866,-7.68911 -0.0107,-0.0109 10.01624,-10.09151 14.36454,-14.38906 l 7.5208,8.9569 6.22671,10.57813 c 2.4228,5.53458 5.08114,14.04754 5.96345,20.19173 0.57677,4.01651 0.75906,6.89085 0.70722,11.15149 -0.042,3.45433 -0.22571,5.92717 -0.67316,9.06303 -1.91086,13.39175 -7.56148,25.90924 -16.33568,36.1875 -1.06332,1.24559 -3.3381,3.71875 -3.42047,3.71875 -0.0122,0 -3.24062,-3.21851 -7.17424,-7.15224 z"
       id="path2782"
       inkscape:connector-curvature="0"
       transform="scale(0.26458333)"
       sodipodi:nodetypes="cccccccscccscccscc" />
    <path
       style="fill:none;stroke:#000000;stroke-width:0.16500001;stroke-linecap:butt;stroke-linejoin:miter;stroke-miterlimit:4;stroke-dasharray:none;stroke-opacity:1;marker-start:url(#marker2824)"
       d="m 155.24218,100.08147 v 7.72975 51.36533"
       id="path2784"
       inkscape:connector-curvature="0"
       sodipodi:nodetypes="ccc" />
    <path
       sodipodi:nodetypes="ccc"
       inkscape:connector-curvature="0"
       id="path2868"
       d="m 184.55353,129.39282 h -7.72975 -51.36533"
       style="fill:none;stroke:#000000;stroke-width:0.16500001;stroke-linecap:butt;stroke-linejoin:miter;stroke-miterlimit:4;stroke-dasharray:none;stroke-opacity:1;marker-start:url(#marker2872)" />
    <text
       xml:space="preserve"
       style="font-style:normal;font-weight:normal;font-size:1.58749998px;line-height:1.25;font-family:sans-serif;letter-spacing:0px;word-spacing:0px;fill:#000000;fill-opacity:1;stroke:none;stroke-width:0.26458332"
       x="156.12549"
       y="100.79076"
       id="text3008"><tspan
         sodipodi:role="line"
         id="tspan3006"
         x="156.12549"
         y="100.79076"
         style="stroke-width:0.26458332">$y$</tspan></text>
    <text
       xml:space="preserve"
       style="font-style:normal;font-weight:normal;font-size:1.58749998px;line-height:1.25;font-family:sans-serif;letter-spacing:0px;word-spacing:0px;fill:#000000;fill-opacity:1;stroke:none;stroke-width:0.26458332"
       x="183.08284"
       y="130.88226"
       id="text3008-4"><tspan
         sodipodi:role="line"
         id="tspan3006-8"
         x="183.08284"
         y="130.88226"
         style="stroke-width:0.26458332">$x$</tspan></text>
    <text
       xml:space="preserve"
       style="font-style:normal;font-weight:normal;font-size:1.58749998px;line-height:1.25;font-family:sans-serif;letter-spacing:0px;word-spacing:0px;fill:#000000;fill-opacity:1;stroke:none;stroke-width:0.26458332"
       x="131.83679"
       y="135.14915"
       id="text3008-6"><tspan
         sodipodi:role="line"
         id="tspan3006-0"
         x="131.83679"
         y="135.14915"
         style="stroke-width:0.26458332">$B$</tspan></text>
    <text
       xml:space="preserve"
       style="font-style:normal;font-weight:normal;font-size:1.58749998px;line-height:1.25;font-family:sans-serif;letter-spacing:0px;word-spacing:0px;fill:#000000;fill-opacity:1;stroke:none;stroke-width:0.26458332"
       x="143.44539"
       y="146.52623"
       id="text3008-43"><tspan
         sodipodi:role="line"
         id="tspan3006-1"
         x="143.44539"
         y="146.52623"
         style="stroke-width:0.26458332">$B_n$</tspan></text>
    <text
       xml:space="preserve"
       style="font-style:normal;font-weight:normal;font-size:1.58749998px;line-height:1.25;font-family:sans-serif;letter-spacing:0px;word-spacing:0px;fill:#000000;fill-opacity:1;stroke:none;stroke-width:0.26458332"
       x="155.7485"
       y="147.5515"
       id="text3008-9"><tspan
         sodipodi:role="line"
         id="tspan3006-3"
         x="155.7485"
         y="147.5515"
         style="stroke-width:0.26458332">$B_i$</tspan></text>
    <text
       xml:space="preserve"
       style="font-style:normal;font-weight:normal;font-size:1.58749998px;line-height:1.25;font-family:sans-serif;letter-spacing:0px;word-spacing:0px;fill:#000000;fill-opacity:1;stroke:none;stroke-width:0.26458332"
       x="166.92715"
       y="139.89511"
       id="text3008-7"><tspan
         sodipodi:role="line"
         id="tspan3006-7"
         x="166.92715"
         y="139.89511"
         style="stroke-width:0.26458332">$B_1$</tspan></text>
    <flowRoot
       xml:space="preserve"
       id="flowRoot3060"
       style="font-style:normal;font-weight:normal;font-size:40px;line-height:1.25;font-family:sans-serif;letter-spacing:0px;word-spacing:0px;fill:#000000;fill-opacity:1;stroke:none"
       transform="scale(0.26458333)"><flowRegion
         id="flowRegion3062"><rect
           id="rect3064"
           width="609.52606"
           height="306.88434"
           x="178.1909"
           y="326.31744" /></flowRegion><flowPara
         id="flowPara3066"></flowPara></flowRoot>  </g>
</svg>
